<svg width="16" height="13" fill="none" xmlns="http://www.w3.org/2000/svg"><path d="M5.264 6.012A3.1 3.1 0 016.668 7.2c.336.528.504 1.152.504 1.872 0 1.032-.324 1.872-.972 2.52-.648.624-1.476.936-2.484.936s-1.848-.324-2.52-.972C.548 10.908.224 10.08.224 9.072c0-.48.06-.96.18-1.44s.384-1.2.792-2.16L3.284.288h3.564L5.264 6.012zm8.496 0A3.1 3.1 0 0115.164 7.2c.336.528.504 1.152.504 1.872 0 1.032-.324 1.872-.972 2.52-.648.624-1.476.936-2.484.936s-1.848-.324-2.52-.972c-.648-.648-.972-1.476-.972-2.484 0-.48.06-.96.18-1.44s.384-1.2.792-2.16L11.78.288h3.564L13.76 6.012z" fill="#080808"/></svg>